<?xml version="1.0" encoding="UTF-8" standalone="no"?>
<svg width="824px" height="393px" viewBox="0 0 824 393" version="1.1" xmlns="http://www.w3.org/2000/svg" xmlns:xlink="http://www.w3.org/1999/xlink">
    <!-- Generator: Sketch 42 (36781) - http://www.bohemiancoding.com/sketch -->
    <title>Group 2</title>
    <desc>Created with Sketch.</desc>
    <defs>
        <linearGradient x1="50%" y1="100.024709%" x2="50%" y2="-0.00664819945%" id="linearGradient-1">
            <stop stop-color="#FFFFFF" offset="0%"></stop>
            <stop stop-color="#BCBEC0" offset="100%"></stop>
        </linearGradient>
    </defs>
    <g id="Page-1" stroke="none" stroke-width="1" fill="none" fill-rule="evenodd">
        <g id="Group-2" transform="translate(3.000000, 3.000000)">
            <rect id="Rectangle-path" fill="#EFC48F" fill-rule="nonzero" x="0" y="201" width="818" height="38"></rect>
            <rect id="Rectangle-path" fill="#CCA57A" fill-rule="nonzero" x="0" y="223" width="818" height="16"></rect>
            <rect id="Rectangle-path" stroke="#656D78" stroke-width="6" stroke-linecap="round" stroke-linejoin="round" x="0" y="201" width="818" height="38"></rect>
            <rect id="Rectangle-path" fill="#F5F7FA" fill-rule="nonzero" x="46.5" y="239.2" width="724" height="23"></rect>
            <rect id="Rectangle-path" fill="#D1D3D4" fill-rule="nonzero" x="46.5" y="239.2" width="724" height="11.5"></rect>
            <rect id="Rectangle-path" stroke="#656D78" stroke-width="6" stroke-linecap="round" stroke-linejoin="round" x="46.5" y="239.2" width="724" height="23"></rect>
            <polygon id="Shape" fill="url(#linearGradient-1)" fill-rule="nonzero" points="109 386.4 83 372.110803 83 262.4 109 262.4"></polygon>
            <polyline id="Shape" stroke="#656D78" stroke-width="6" stroke-linecap="round" stroke-linejoin="round" points="83 375.957895 83 262.4 109 262.4 109 386.4"></polyline>
            <polygon id="Shape" fill="url(#linearGradient-1)" fill-rule="nonzero" points="708 386.4 734 370.736842 734 262.4 708 262.4"></polygon>
            <polyline id="Shape" stroke="#656D78" stroke-width="6" stroke-linecap="round" stroke-linejoin="round" points="734 375.557895 734 262 708 262 708 386"></polyline>
            <path d="M650.7,201.2 L598.7,201.2 L598.7,196.4 C598.7,184 608.7,174 621.1,174 L628.3,174 C640.7,174 650.7,184 650.7,196.4 L650.7,201.2 Z" id="Shape" fill="#FFFFFF" fill-rule="nonzero"></path>
            <rect id="Rectangle-path" fill="#D1D3D4" fill-rule="nonzero" x="598.7" y="194.1" width="52" height="7"></rect>
            <path d="M650.7,201.2 L598.7,201.2 L598.7,196.4 C598.7,184 608.7,174 621.1,174 L628.3,174 C640.7,174 650.7,184 650.7,196.4 L650.7,201.2 Z" id="Shape" stroke="#656D78" stroke-width="6" stroke-linecap="round" stroke-linejoin="round"></path>
            <path d="M624.7,172.2 L624.7,177.4" id="Shape" stroke="#656D78" stroke-width="6" stroke-linecap="round" stroke-linejoin="round"></path>
            <path d="M740,169.2 L710.3,169.2 C703.3,169.2 697.6,163.5 697.6,156.5 L697.6,107.2 L752.6,107.2 L752.6,156.5 C752.7,163.5 747,169.2 740,169.2 Z" id="Shape" fill="#FFFFFF" fill-rule="nonzero"></path>
            <path d="M752.7,144.5 L752.7,156.5 C752.7,163.5 747,169.2 740,169.2 L710.3,169.2 C703.3,169.2 697.6,163.5 697.6,156.5 L697.6,144.5 C697.6,151.5 703.3,157.2 710.3,157.2 L740,157.2 C747,157.2 752.7,151.5 752.7,144.5 Z" id="Shape" fill="#CCA57A" fill-rule="nonzero"></path>
            <path d="M740,169.2 L710.3,169.2 C703.3,169.2 697.6,163.5 697.6,156.5 L697.6,107.2 L752.6,107.2 L752.6,156.5 C752.7,163.5 747,169.2 740,169.2 Z" id="Shape" stroke="#656D78" stroke-width="6" stroke-linecap="round" stroke-linejoin="round"></path>
            <path d="M759.6,151.2 L752.6,151.2 L752.6,119.2 L770.6,119.2 L770.6,140.2 C770.7,146.2 765.7,151.2 759.6,151.2 Z" id="Shape" stroke="#656D78" stroke-width="6" stroke-linecap="round" stroke-linejoin="round"></path>
            <path d="M737.7,103.2 L737.7,119.2" id="Shape" stroke="#656D78" stroke-width="6" stroke-linecap="round" stroke-linejoin="round"></path>
            <rect id="Rectangle-path" fill="#C3A0E8" fill-rule="nonzero" x="731.7" y="119.2" width="12" height="14"></rect>
            <rect id="Rectangle-path" stroke="#656D78" stroke-width="6" stroke-linecap="round" stroke-linejoin="round" x="731.7" y="119.2" width="12" height="14"></rect>
            <path d="M735.4,48.7 C735.4,53.7 733,53.7 733,58.7 C733,63.7 735.4,63.7 735.4,68.7 C735.4,73.7 733,73.7 733,78.7" id="Shape" stroke="#E6E9ED" stroke-width="6" stroke-linecap="round" stroke-linejoin="round"></path>
            <path d="M717.4,60.7 C717.4,65.7 715,65.7 715,70.7 C715,75.7 717.4,75.7 717.4,80.7 C717.4,85.7 715,85.7 715,90.7" id="Shape" stroke="#E6E9ED" stroke-width="6" stroke-linecap="round" stroke-linejoin="round"></path>
            <path d="M176.3,147.1 L176.3,147.1 L162.4,147 L162.4,147.1 C162.4,149.2 161.4,151.2 159.8,152.5 C158.1,153.8 157,155.9 157,158.2 L157,195.3 C157,198.5 159.6,201.2 162.9,201.2 L175.9,201.2 C179.1,201.2 181.8,198.6 181.8,195.3 L181.8,158.2 C181.8,155.9 180.7,153.8 179,152.5 C177.3,151.2 176.3,149.2 176.3,147.1 Z" id="Shape" fill="#FFFFFF" fill-rule="nonzero"></path>
            <path d="M181.7,158.2 L181.7,195.3 C181.7,198.5 179.1,201.2 175.8,201.2 L162.8,201.2 C161.5,201.2 160.3,200.8 159.4,200.1 L170.9,200.1 C174.1,200.1 176.8,197.5 176.8,194.2 L176.8,157.1 C176.8,154.8 175.7,152.7 174,151.4 C172.6,150.3 171.7,148.8 171.5,147.1 L176.4,147.1 L176.4,147.2 C176.4,149.3 177.4,151.2 179,152.6 C180.6,153.8 181.7,155.9 181.7,158.2 Z" id="Shape" fill="#E6E9ED" fill-rule="nonzero"></path>
            <path d="M172,152 C173.7,153.3 174.8,155.4 174.8,157.7" id="Shape" stroke="#656D78" stroke-width="2.7459" stroke-linecap="round" stroke-linejoin="round" opacity="0.15"></path>
            <path d="M181.7,189.9 L181.7,195.3 C181.7,198.5 179.1,201.2 175.8,201.2 L162.8,201.2 C159.6,201.2 156.9,198.6 156.9,195.3 L156.9,189.9 C156.9,193.1 159.5,195.8 162.8,195.8 L175.8,195.8 C179.1,195.8 181.7,193.1 181.7,189.9 Z" id="Shape" fill="#C3A0E8" fill-rule="nonzero" opacity="0.16"></path>
            <path d="M181.7,189.9 L181.7,195.3 C181.7,198.5 179.1,201.2 175.8,201.2 L170.4,201.2 C173.5,201.2 176,198.8 176.2,195.8 C179.3,195.5 181.7,193 181.7,189.9 Z" id="Shape" fill="#AE69EA" fill-rule="nonzero" opacity="0.16"></path>
            <path d="M165.3,193.3 L163.3,193.3 C161.7,193.3 160.4,192 160.4,190.4 L160.4,188.4" id="Shape" stroke="#656D78" stroke-width="2.7459" stroke-linecap="round" stroke-linejoin="round" opacity="0.15"></path>
            <rect id="Rectangle-path" fill="#C3A0E8" fill-rule="nonzero" x="157" y="161" width="24.7" height="24.5"></rect>
            <rect id="Rectangle-path" fill="#AE69EA" fill-rule="nonzero" x="177.2" y="161" width="4.5" height="24.5"></rect>
            <rect id="Rectangle-path" stroke="#656D78" stroke-width="2.7459" stroke-linecap="round" stroke-linejoin="round" x="157" y="161" width="24.7" height="24.5"></rect>
            <path d="M176.3,147.1 L176.3,147.1 L162.4,147 L162.4,147.1 C162.4,149.2 161.4,151.2 159.8,152.5 C158.1,153.8 157,155.9 157,158.2 L157,195.3 C157,198.5 159.6,201.2 162.9,201.2 L175.9,201.2 C179.1,201.2 181.8,198.6 181.8,195.3 L181.8,158.2 C181.8,155.9 180.7,153.8 179,152.5 C177.3,151.2 176.3,149.2 176.3,147.1 Z" id="Shape" stroke="#656D78" stroke-width="2.7459" stroke-linecap="round" stroke-linejoin="round"></path>
            <path d="M176.6,142.6 L176.6,139.3 C176.6,138.6 176.1,138.1 175.5,138.1 L163.1,138.1 C162.5,138.1 162,138.6 162,139.3 L162,142.6 L162,142.6 C161.7,142.6 161.4,142.9 161.4,143.3 L161.4,145.9 C161.4,146.6 161.9,147.1 162.5,147.1 L176.1,147.1 C176.7,147.1 177.2,146.6 177.2,145.9 L177.2,143.3 C177.2,142.9 177,142.6 176.6,142.6 L176.6,142.6 Z" id="Shape" fill="#FFFFFF" fill-rule="nonzero"></path>
            <path d="M177.2,142.6 L177.2,145.9 C177.2,146.6 176.7,147.1 176.1,147.1 L171.7,147.1 C172.3,147.1 172.8,146.6 172.8,145.9 L172.8,142.6 L172.2,142.6 L172.2,139.3 C172.2,138.6 171.7,138.1 171.1,138.1 L175.5,138.1 C176.1,138.1 176.6,138.6 176.6,139.3 L176.6,142.6 L177.2,142.6 Z" id="Shape" fill="#E6E9ED" fill-rule="nonzero"></path>
            <path d="M176.6,142.6 L176.6,139.3 C176.6,138.6 176.1,138.1 175.5,138.1 L163.1,138.1 C162.5,138.1 162,138.6 162,139.3 L162,142.6 L162,142.6 C161.7,142.6 161.4,142.9 161.4,143.3 L161.4,145.9 C161.4,146.6 161.9,147.1 162.5,147.1 L176.1,147.1 C176.7,147.1 177.2,146.6 177.2,145.9 L177.2,143.3 C177.2,142.9 177,142.6 176.6,142.6 L176.6,142.6 Z" id="Shape" stroke="#656D78" stroke-width="2.7459" stroke-linecap="round" stroke-linejoin="round"></path>
            <path d="M170.4,143 L176.4,143" id="Shape" stroke="#656D78" stroke-width="2.7459" stroke-linecap="round" stroke-linejoin="round"></path>
            <path d="M162.3,143 L164.9,143" id="Shape" stroke="#656D78" stroke-width="2.7459" stroke-linecap="round" stroke-linejoin="round"></path>
            <path d="M173.8,174 C173.8,176.9 171.4,179.3 168.5,179.3 C165.6,179.3 163.2,176.9 163.2,174 C163.2,171.1 168.5,166 168.5,166 C168.5,166 173.8,171.1 173.8,174 Z" id="Shape" fill="#FFFFFF" fill-rule="nonzero"></path>
            <path d="M173.8,174 C173.8,176.9 171.4,179.3 168.5,179.3 C165.7,179.3 163.4,177.1 163.2,174.4 C164.1,176 165.8,177.1 167.8,177.1 C170.7,177.1 173.1,174.8 173.1,171.9 C173.5,172.6 173.8,173.3 173.8,174 Z" id="Shape" fill="#E6E9ED" fill-rule="nonzero"></path>
            <path d="M173.8,174 C173.8,176.9 171.4,179.3 168.5,179.3 C165.6,179.3 163.2,176.9 163.2,174 C163.2,171.1 168.5,166 168.5,166 C168.5,166 173.8,171.1 173.8,174 Z" id="Shape" stroke="#656D78" stroke-width="2.7459" stroke-linecap="round" stroke-linejoin="round"></path>
            <path d="M166.6,172.7 L167.7,170.7" id="Shape" stroke="#656D78" stroke-width="2.7459" stroke-linecap="round" stroke-linejoin="round" opacity="0.15"></path>
            <rect id="Rectangle-path" fill="#FFFFFF" fill-rule="nonzero" x="680.7" y="169.2" width="90" height="16"></rect>
            <rect id="Rectangle-path" fill="#231F20" fill-rule="nonzero" opacity="0.1" x="680.7" y="169.2" width="90" height="8"></rect>
            <rect id="Rectangle-path" stroke="#656D78" stroke-width="6" stroke-linecap="round" stroke-linejoin="round" x="680.7" y="169.2" width="90" height="16"></rect>
            <path d="M695.7,169.2 L695.7,178.2" id="Shape" stroke="#656D78" stroke-width="6" stroke-linecap="round" stroke-linejoin="round"></path>
            <path d="M760.7,169.2 L760.7,178.2" id="Shape" stroke="#656D78" stroke-width="6" stroke-linecap="round" stroke-linejoin="round"></path>
            <rect id="Rectangle-path" fill="#E6E9ED" fill-rule="nonzero" x="680.7" y="185.2" width="98" height="16"></rect>
            <rect id="Rectangle-path" fill="#231F20" fill-rule="nonzero" opacity="0.1" x="680.7" y="185.2" width="98" height="8"></rect>
            <rect id="Rectangle-path" stroke="#656D78" stroke-width="6" stroke-linecap="round" stroke-linejoin="round" x="680.7" y="185.2" width="98" height="16"></rect>
            <path d="M697,185.2 L697,194.2" id="Shape" stroke="#656D78" stroke-width="6" stroke-linecap="round" stroke-linejoin="round"></path>
            <path d="M767.8,185.2 L767.8,194.2" id="Shape" stroke="#656D78" stroke-width="6" stroke-linecap="round" stroke-linejoin="round"></path>
            <circle id="Oval" fill="#C3A0E8" fill-rule="nonzero" cx="194.5" cy="74.2" r="2"></circle>
            <circle id="Oval" fill="#C3A0E8" fill-rule="nonzero" cx="26" cy="85.1" r="2"></circle>
            <circle id="Oval" fill="#C3A0E8" fill-rule="nonzero" cx="208" cy="150.1" r="2"></circle>
            <path d="M547.9,182 L271.4,182 L271.4,10.5 C271.4,4.8 276,0.1 281.8,0.1 L537.5,0.1 C543.2,0.1 547.9,4.7 547.9,10.5 L547.9,182 Z" id="Shape" fill="#434A54" fill-rule="nonzero"></path>
            <path d="M547.9,182 L271.4,182 L271.4,10.5 C271.4,4.8 276,0.1 281.8,0.1 L537.5,0.1 C543.2,0.1 547.9,4.7 547.9,10.5 L547.9,182 Z" id="Shape" stroke="#656D78" stroke-width="6" stroke-linecap="round" stroke-linejoin="round"></path>
            <path d="M560.8,201.2 L258.6,201.2 C247.1,201.2 237.7,191.9 237.7,180.3 L237.7,177.5 L581.7,177.5 L581.7,180.3 C581.7,191.8 572.3,201.2 560.8,201.2 Z" id="Shape" fill="#E6E9ED" fill-rule="nonzero"></path>
            <path d="M581.7,177.5 C581.7,184.1 579.6,190 576.3,194.3 C573,198.6 568.4,201.2 563.3,201.2 L256.1,201.2 C245.9,201.2 237.7,190.6 237.7,177.5 L239.9,177.5 C243,185 249.1,190.1 256.1,190.1 L563.3,190.1 C568.4,190.1 573,187.4 576.3,183.2 C577.6,181.6 578.7,179.7 579.5,177.6 L581.7,177.6 L581.7,177.5 Z" id="Shape" fill="#D1D3D4" fill-rule="nonzero"></path>
            <path d="M560.8,201.2 L258.6,201.2 C247.1,201.2 237.7,191.9 237.7,180.3 L237.7,177.5 L581.7,177.5 L581.7,180.3 C581.7,191.8 572.3,201.2 560.8,201.2 Z" id="Shape" stroke="#656D78" stroke-width="6" stroke-linecap="round" stroke-linejoin="round"></path>
            <path d="M528.9,38.6 L528.9,157.8 C528.9,159.9 527.3,161.7 525.3,161.7 L294,161.7 C292,161.7 290.4,160 290.4,157.8 L290.4,38.6 L528.9,38.6 Z" id="Shape" fill="#FFFFFF" fill-rule="nonzero"></path>
            <ellipse id="Oval" fill="#656D78" fill-rule="nonzero" cx="409.7" cy="12.6" rx="2.1" ry="2.3"></ellipse>
            <ellipse id="Oval" fill="#FFFFFF" fill-rule="nonzero" opacity="0.2" cx="409.7" cy="12.6" rx="3.2" ry="3.4"></ellipse>
            <path d="M528.9,24.4 L528.9,38.6 L290.4,38.6 L290.4,24.4 C290.4,22.3 292,20.5 294,20.5 L525.2,20.5 C527.3,20.5 528.9,22.2 528.9,24.4 Z" id="Shape" fill="#173749" fill-rule="nonzero"></path>
            <circle id="Oval" fill="#E6E9ED" fill-rule="nonzero" opacity="0.5" cx="506.5" cy="29.6" r="5.5"></circle>
            <path d="M326,34.1 L307,34.1 C305.3,34.1 304,32.8 304,31.1 L304,31.1 C304,29.4 305.3,28.1 307,28.1 L326,28.1 C327.7,28.1 329,29.4 329,31.1 L329,31.1 C329,32.7 327.7,34.1 326,34.1 Z" id="Shape" fill="#FFFFFF" fill-rule="nonzero" opacity="0.5"></path>
            <rect id="Rectangle-path" fill="#E6E9ED" fill-rule="nonzero" x="290.4" y="38.1" width="238.6" height="15"></rect>
            <path d="M322.4,66.6 L307.2,66.6 C305.4,66.6 304,65.1 304,63.4 L304,63.4 C304,61.6 305.5,60.2 307.2,60.2 L322.4,60.2 C324.2,60.2 325.6,61.7 325.6,63.4 L325.6,63.4 C325.7,65.1 324.2,66.6 322.4,66.6 Z" id="Shape" fill="#58595B" fill-rule="nonzero"></path>
            <path d="M333.8,63.3 L350.3,63.3" id="Shape" stroke="#D1D3D4" stroke-width="3" stroke-linecap="round" stroke-linejoin="round"></path>
            <path d="M359.7,63.3 L376.2,63.3" id="Shape" stroke="#D1D3D4" stroke-width="3" stroke-linecap="round" stroke-linejoin="round"></path>
            <path d="M304,73.7 L512,73.7" id="Shape" stroke="#D1D3D4" stroke-width="0.5" stroke-linecap="round" stroke-linejoin="round"></path>
            <path d="M482.5,68.6 L508.3,68.6 C509.1,68.6 509.8,67.9 509.8,67.1 L509.8,62.1 C509.8,61.3 509.1,60.6 508.3,60.6 L482.5,60.6 C481.7,60.6 481,61.3 481,62.1 L481,67.1 C481,67.9 481.7,68.6 482.5,68.6 Z" id="Shape" fill="#AE69EA" fill-rule="nonzero"></path>
            <rect id="Rectangle-path" fill="#F5F7FA" fill-rule="nonzero" x="304" y="82.2" width="208" height="15.6"></rect>
            <rect id="Rectangle-path" fill="#F5F7FA" fill-rule="nonzero" x="304" y="101.2" width="208" height="15.6"></rect>
            <rect id="Rectangle-path" fill="#F5F7FA" fill-rule="nonzero" x="304" y="120.2" width="208" height="15.6"></rect>
            <rect id="Rectangle-path" fill="#F5F7FA" fill-rule="nonzero" x="304" y="139.2" width="208" height="15.6"></rect>
            <path d="M312.7,89.9 L327,89.9" id="Shape" stroke="#E6E7E8" stroke-width="3" stroke-linecap="round" stroke-linejoin="round"></path>
            <path d="M357.6,89.9 L428.2,89.9" id="Shape" stroke="#E6E7E8" stroke-width="3" stroke-linecap="round" stroke-linejoin="round"></path>
            <path d="M357.6,108.9 L428.2,108.9" id="Shape" stroke="#E6E7E8" stroke-width="3" stroke-linecap="round" stroke-linejoin="round"></path>
            <path d="M357.6,127.9 L428.2,127.9" id="Shape" stroke="#E6E7E8" stroke-width="3" stroke-linecap="round" stroke-linejoin="round"></path>
            <path d="M357.6,146.8 L428.2,146.8" id="Shape" stroke="#E6E7E8" stroke-width="3" stroke-linecap="round" stroke-linejoin="round"></path>
            <path d="M312.7,109.4 L327,109.4" id="Shape" stroke="#E6E7E8" stroke-width="3" stroke-linecap="round" stroke-linejoin="round"></path>
            <path d="M312.7,127.9 L327,127.9" id="Shape" stroke="#E6E7E8" stroke-width="3" stroke-linecap="round" stroke-linejoin="round"></path>
            <path d="M312.7,147.4 L327,147.4" id="Shape" stroke="#E6E7E8" stroke-width="3" stroke-linecap="round" stroke-linejoin="round"></path>
            <circle id="Oval" fill="#E6E9ED" fill-rule="nonzero" cx="345.4" cy="89.9" r="5.7"></circle>
            <circle id="Oval" fill="#E6E9ED" fill-rule="nonzero" cx="345.4" cy="109.4" r="5.7"></circle>
            <circle id="Oval" fill="#E6E9ED" fill-rule="nonzero" cx="345.4" cy="127.9" r="5.7"></circle>
            <circle id="Oval" fill="#E6E9ED" fill-rule="nonzero" cx="345.4" cy="146.4" r="5.7"></circle>
            <path d="M481.4,93.8 L465.4,93.8 C464.9,93.8 464.6,93.4 464.6,93 L464.6,86.9 C464.6,86.4 465,86.1 465.4,86.1 L481.4,86.1 C481.9,86.1 482.2,86.5 482.2,86.9 L482.2,93 C482.2,93.4 481.8,93.8 481.4,93.8 Z" id="Shape" fill="#D9EDBE" fill-rule="nonzero"></path>
            <path d="M502.2,93.8 L486.2,93.8 C485.7,93.8 485.4,93.4 485.4,93 L485.4,86.9 C485.4,86.4 485.8,86.1 486.2,86.1 L502.2,86.1 C502.7,86.1 503,86.5 503,86.9 L503,93 C503,93.4 502.6,93.8 502.2,93.8 Z" id="Shape" stroke="#D1D3D4" stroke-width="0.45" stroke-linecap="round" stroke-linejoin="round"></path>
            <path d="M481.4,112.8 L465.4,112.8 C464.9,112.8 464.6,112.4 464.6,112 L464.6,105.9 C464.6,105.4 465,105.1 465.4,105.1 L481.4,105.1 C481.9,105.1 482.2,105.5 482.2,105.9 L482.2,112 C482.2,112.4 481.8,112.8 481.4,112.8 Z" id="Shape" fill="#D9EDBE" fill-rule="nonzero"></path>
            <path d="M502.2,112.8 L486.2,112.8 C485.7,112.8 485.4,112.4 485.4,112 L485.4,105.9 C485.4,105.4 485.8,105.1 486.2,105.1 L502.2,105.1 C502.7,105.1 503,105.5 503,105.9 L503,112 C503,112.4 502.6,112.8 502.2,112.8 Z" id="Shape" stroke="#D1D3D4" stroke-width="0.45" stroke-linecap="round" stroke-linejoin="round"></path>
            <path d="M481.4,131.8 L465.4,131.8 C464.9,131.8 464.6,131.4 464.6,131 L464.6,124.9 C464.6,124.4 465,124.1 465.4,124.1 L481.4,124.1 C481.9,124.1 482.2,124.5 482.2,124.9 L482.2,131 C482.2,131.4 481.8,131.8 481.4,131.8 Z" id="Shape" fill="#D9EDBE" fill-rule="nonzero"></path>
            <path d="M502.2,131.8 L486.2,131.8 C485.7,131.8 485.4,131.4 485.4,131 L485.4,124.9 C485.4,124.4 485.8,124.1 486.2,124.1 L502.2,124.1 C502.7,124.1 503,124.5 503,124.9 L503,131 C503,131.4 502.6,131.8 502.2,131.8 Z" id="Shape" stroke="#D1D3D4" stroke-width="0.45" stroke-linecap="round" stroke-linejoin="round"></path>
            <path d="M481.4,151.2 L465.4,151.2 C464.9,151.2 464.6,150.8 464.6,150.4 L464.6,144.3 C464.6,143.8 465,143.5 465.4,143.5 L481.4,143.5 C481.9,143.5 482.2,143.9 482.2,144.3 L482.2,150.4 C482.2,150.9 481.8,151.2 481.4,151.2 Z" id="Shape" fill="#D9EDBE" fill-rule="nonzero"></path>
            <path d="M502.2,151.2 L486.2,151.2 C485.7,151.2 485.4,150.8 485.4,150.4 L485.4,144.3 C485.4,143.8 485.8,143.5 486.2,143.5 L502.2,143.5 C502.7,143.5 503,143.9 503,144.3 L503,150.4 C503,150.9 502.6,151.2 502.2,151.2 Z" id="Shape" stroke="#D1D3D4" stroke-width="0.45" stroke-linecap="round" stroke-linejoin="round"></path>
            <circle id="Oval" fill="#C3A0E8" fill-rule="nonzero" cx="587.5" cy="103.2" r="2"></circle>
            <circle id="Oval" fill="#C3A0E8" fill-rule="nonzero" cx="768.5" cy="62.2" r="2"></circle>
            <path d="M164.9,82.2 C170.1,87.5 165.8,91.8 160.5,86.6 C155.2,91.8 150.9,87.5 156.1,82.2 C150.9,76.9 155.2,72.6 160.5,77.8 C165.8,72.6 170.1,76.9 164.9,82.2 Z" id="Shape" fill="#C3A0E8" fill-rule="nonzero"></path>
            <path d="M674.9,90.2 C680.1,95.5 675.8,99.8 670.5,94.6 C665.2,99.8 660.9,95.5 666.1,90.2 C660.9,84.9 665.2,80.6 670.5,85.8 C675.8,80.6 680.1,84.9 674.9,90.2 Z" id="Shape" fill="#C3A0E8" fill-rule="nonzero"></path>
            <circle id="Oval" stroke="#E6E9ED" stroke-width="2" stroke-linecap="round" stroke-linejoin="round" cx="180" cy="63.7" r="3.5"></circle>
            <circle id="Oval" fill="#C3A0E8" fill-rule="nonzero" cx="55" cy="33" r="7"></circle>
            <circle id="Oval" stroke="#E6E9ED" stroke-width="2" stroke-linecap="round" stroke-linejoin="round" cx="765" cy="84.7" r="3.5"></circle>
            <circle id="Oval" stroke="#E6E9ED" stroke-width="2" stroke-linecap="round" stroke-linejoin="round" cx="681" cy="118.7" r="3.5"></circle>
            <circle id="Oval" stroke="#E6E9ED" stroke-width="2" stroke-linecap="round" stroke-linejoin="round" cx="186" cy="95.7" r="3.5"></circle>
            <g id="Group-3" transform="translate(651.000000, 20.000000)">
                <circle id="Oval" fill="#C3A0E8" fill-rule="nonzero" cx="95" cy="2" r="2"></circle>
                <path d="M154.152138,12.7521382 C159.352138,18.0521382 155.052138,22.3521382 149.752138,17.1521382 C144.452138,22.3521382 140.152138,18.0521382 145.352138,12.7521382 C140.152138,7.45213819 144.452138,3.15213819 149.752138,8.35213819 C155.052138,3.15213819 159.352138,7.45213819 154.152138,12.7521382 Z" id="Shape" fill="#C3A0E8" fill-rule="nonzero"></path>
                <circle id="Oval" stroke="#E6E9ED" stroke-width="2" stroke-linecap="round" stroke-linejoin="round" cx="3.5" cy="19.5" r="3.5"></circle>
            </g>
            <path d="M40.9,160.4 C40.9,160.4 40.2,153.6 48.4,132.2 C56.6,110.8 68.8,86.3 72.2,79.9 C75.6,73.4 75.9,70.4 79,70 C82.1,69.7 96,69.7 98.7,70 C101.4,70.3 103.1,76.5 104.1,78.5 C105.1,80.5 123.1,120.3 126.2,126.7 C129.3,133.2 138.8,151.8 139.1,160.3 C127.1,160.4 40.9,160.4 40.9,160.4 Z" id="Shape" fill="#FFFFFF" fill-rule="nonzero"></path>
            <path d="M139,160.4 L127.5,160.4 C127.2,151.9 117.6,133.2 114.6,126.8 C111.5,120.3 93.5,80.6 92.5,78.6 C91.5,76.6 89.8,70.4 87.1,70.1 C86.4,70 84.9,69.9 83.1,69.9 C88.4,69.8 96.6,69.8 98.6,70.1 C101.3,70.4 103,76.6 104,78.6 C105,80.6 123,120.4 126.1,126.8 C129.2,133.2 138.7,151.9 139,160.4 Z" id="Shape" fill="#E6E9ED" fill-rule="nonzero"></path>
            <path d="M40.9,160.4 C40.9,160.4 40.2,153.6 48.4,132.2 C56.6,110.8 68.8,86.3 72.2,79.9 C75.6,73.4 75.9,70.4 79,70 C82.1,69.7 96,69.7 98.7,70 C101.4,70.3 103.1,76.5 104.1,78.5 C105.1,80.5 123.1,120.3 126.2,126.7 C129.3,133.2 138.8,151.8 139.1,160.3 C127.1,160.4 40.9,160.4 40.9,160.4 Z" id="Shape" stroke="#656D78" stroke-width="5.4528" stroke-linecap="round" stroke-linejoin="round"></path>
            <path d="M85.9,137.2 L93.9,129.2 L93.9,129.2 C97,132.3 97,137.3 93.9,140.4 L85.9,148.4 L85.9,148.4 C82.8,145.3 82.8,140.3 85.9,137.2 Z" id="Shape" stroke="#656D78" stroke-width="5.4528" stroke-linecap="round" stroke-linejoin="round"></path>
            <path d="M139,160.4 L40.8,160.4 C40.8,181.9 58.2,196.5 63.2,200.2 C64,200.8 65,201.1 66.1,201.1 L110.1,201.1 C111,201.1 111.9,200.8 112.7,200.4 C118.1,197 139,182.3 139,160.4 Z" id="Shape" fill="#E6E9ED" fill-rule="nonzero"></path>
            <path d="M139,160.4 C139,182.3 118,197 112.7,200.4 C111.9,200.9 111,201.1 110.1,201.1 L98.6,201.1 C99.5,201.1 100.4,200.8 101.2,200.4 C106.5,197 127.5,182.3 127.5,160.4 L139,160.4 Z" id="Shape" fill="#D1D3D4" fill-rule="nonzero"></path>
            <path d="M139,160.4 L40.8,160.4 C40.8,181.9 58.2,196.5 63.2,200.2 C64,200.8 65,201.1 66.1,201.1 L110.1,201.1 C111,201.1 111.9,200.8 112.7,200.4 C118.1,197 139,182.3 139,160.4 Z" id="Shape" stroke="#656D78" stroke-width="5.4528" stroke-linecap="round" stroke-linejoin="round"></path>
            <path d="M94,173.6 L85.8,173.6 C84.6,173.6 83.6,172.6 83.6,171.4 L83.6,171.4 C83.6,170.2 84.6,169.2 85.8,169.2 L94,169.2 C95.2,169.2 96.2,170.2 96.2,171.4 L96.2,171.4 C96.3,172.6 95.3,173.6 94,173.6 Z" id="Shape" stroke="#656D78" stroke-width="1.9308" stroke-linecap="round" stroke-linejoin="round" fill="#AE69EA" fill-rule="nonzero"></path>
            <circle id="Oval" fill="#C3A0E8" fill-rule="nonzero" cx="606.5" cy="67.2" r="2"></circle>
            <circle id="Oval" stroke="#E6E9ED" stroke-width="2" stroke-linecap="round" stroke-linejoin="round" cx="587" cy="8.7" r="3.5"></circle>
            <circle id="Oval" stroke="#E6E9ED" stroke-width="2" stroke-linecap="round" stroke-linejoin="round" cx="221" cy="13.7" r="3.5"></circle>
        </g>
    </g>
</svg>